<svg version="1.1" id="Layer_1" xmlns="http://www.w3.org/2000/svg" xmlns:xlink="http://www.w3.org/1999/xlink" x="0px" y="0px"
	 width="100%" viewBox="0 0 107 107" enable-background="new 0 0 107 107" xml:space="preserve">
<path fill="#FDFBF9" opacity="1.000000" stroke="none" 
	d="
M108.000000,37.000000 
	C108.000000,60.999996 108.000000,84.499992 108.000000,108.000000 
	C72.333344,108.000000 36.666679,108.000000 1.000016,108.000000 
	C1.000011,72.333344 1.000011,36.666691 1.000005,1.000026 
	C36.666653,1.000017 72.333305,1.000017 107.999977,1.000008 
	C108.000000,12.833333 108.000000,24.666666 108.000000,37.000000 
M5.490859,101.261032 
	C5.671052,101.216232 5.851245,101.171432 6.946821,101.331146 
	C16.067373,101.346718 25.188011,101.395317 34.308456,101.371269 
	C56.191708,101.313560 78.074860,101.221725 100.650246,101.170494 
	C100.889671,100.811928 101.129097,100.453362 101.645844,99.316292 
	C101.645844,69.277779 101.645844,39.239265 101.645844,8.765563 
	C94.341484,8.765563 87.700775,8.765563 81.379173,8.182749 
	C81.809341,6.945900 82.239502,5.709052 82.669670,4.472204 
	C82.331505,4.093185 81.993340,3.714167 81.655167,3.335149 
	C76.589935,5.263123 71.524696,7.191097 65.458466,8.952365 
	C45.309280,9.000152 25.160093,9.047937 4.485712,9.094957 
	C4.397127,9.400511 4.308543,9.706064 4.104132,10.940609 
	C4.134891,40.613167 4.165650,70.285721 4.090581,100.518753 
	C4.377865,100.718590 4.665149,100.918427 5.490859,101.261032 
z"/>
<path fill="#085F84" opacity="1.000000" stroke="none" 
	d="
M66.459465,9.119070 
	C71.524696,7.191097 76.589935,5.263123 81.655167,3.335149 
	C81.993340,3.714167 82.331505,4.093185 82.669670,4.472204 
	C82.239502,5.709052 81.809341,6.945900 80.902161,8.648321 
	C79.598030,10.150448 78.770912,11.187002 76.976067,13.436316 
	C80.949120,12.755891 83.301506,12.169566 85.681854,12.015621 
	C87.063103,11.926291 88.489296,12.531828 89.633499,13.041738 
	C84.667198,21.157492 75.578430,20.207266 68.033798,23.936798 
	C69.753410,26.829567 71.078926,30.154493 73.347511,32.607117 
	C76.397812,35.904877 80.403282,38.310604 83.525757,41.554516 
	C84.716232,42.791290 84.598099,45.287689 85.076340,47.210037 
	C82.968445,47.649994 80.853188,48.465786 78.754707,48.424713 
	C76.635529,48.383236 74.532990,47.492233 72.423157,46.973400 
	C72.124046,47.386375 71.824928,47.799347 71.525818,48.212322 
	C73.339157,50.486046 75.152496,52.759769 76.908829,55.313789 
	C76.479019,56.027870 76.106224,56.461655 75.430252,56.926048 
	C75.462341,58.155224 75.492516,59.577988 76.182007,60.516258 
	C80.941315,66.992851 85.838158,73.368378 90.368164,79.712212 
	C88.506218,78.488869 86.688637,77.564659 85.476547,76.129196 
	C80.653999,70.417877 76.020294,64.547112 71.411308,58.468864 
	C71.538139,57.829815 71.570312,57.457294 71.687584,56.851913 
	C71.776772,56.259098 71.633682,55.972633 71.296432,55.391678 
	C71.090431,54.390274 71.142204,53.462883 70.737221,53.172489 
	C68.564758,51.614716 67.486885,49.992935 67.153648,46.952602 
	C66.578758,41.707623 59.003143,38.166389 54.996384,40.694843 
	C55.781082,42.298100 56.679497,43.874733 57.342739,45.544765 
	C58.578568,48.656570 59.677567,51.822720 60.618080,54.862888 
	C59.994499,54.512836 59.586353,54.266148 59.018814,53.704632 
	C56.578320,49.555523 54.297215,45.721233 51.618191,41.218090 
	C50.617500,43.864017 50.050655,45.362812 49.465385,46.910324 
	C48.199661,45.832497 47.145882,44.935150 46.092102,44.037804 
	C45.605961,44.627758 44.607018,45.338520 44.713131,45.788944 
	C45.754467,50.209198 44.326286,53.182606 40.187061,55.193634 
	C39.390949,55.580421 39.484455,57.647427 39.005112,58.875927 
	C38.428856,60.352810 37.678856,61.761906 36.672714,62.988289 
	C36.327023,58.570335 38.834141,53.621502 32.959564,50.766678 
	C33.344707,48.629265 33.687431,46.879982 34.318081,44.938232 
	C34.606007,42.047047 34.606007,39.348328 34.606007,36.649609 
	C33.867256,36.640030 33.128510,36.630447 32.389759,36.620865 
	C32.172516,39.088104 31.955273,41.555340 31.509079,44.353996 
	C31.292316,46.971287 31.304506,49.257164 31.430166,51.886421 
	C31.636892,54.473297 31.730150,56.716797 31.542879,58.971489 
	C30.888145,58.979092 30.513941,58.975510 30.076719,58.557201 
	C29.620922,55.765293 29.228144,53.388103 28.900406,50.676460 
	C28.922413,49.891850 28.879381,49.441692 28.890499,48.679451 
	C28.610100,47.957138 28.275551,47.546906 27.840351,46.880348 
	C27.431425,46.441494 27.123148,46.258968 26.881580,45.683075 
	C29.765959,40.674290 28.480928,34.249668 33.204750,30.571390 
	C34.847179,29.292488 37.384571,29.189775 39.093102,27.964207 
	C45.835361,23.127825 52.410740,18.058792 59.326721,13.016488 
	C59.891575,12.717477 60.177723,12.478044 60.792503,12.172735 
	C62.900574,11.110929 64.680016,10.114999 66.459465,9.119070 
z"/>
<path fill="#D37825" opacity="1.000000" stroke="none" 
	d="
M65.958969,9.035717 
	C64.680016,10.114999 62.900574,11.110929 60.306229,12.127366 
	C59.171604,12.205487 58.851879,12.263101 58.101231,12.378998 
	C41.562149,12.437281 25.453991,12.437281 8.974455,12.437281 
	C8.974455,29.177359 8.974455,45.109135 8.908207,61.503258 
	C8.772412,73.354897 8.702866,84.744179 8.516882,96.252998 
	C8.620781,96.564476 8.841118,96.756416 9.302211,96.946220 
	C9.542968,96.944084 9.998865,96.789078 10.464637,96.842018 
	C27.958006,96.856613 44.985603,96.818260 62.338356,96.858208 
	C63.103226,96.884331 63.542942,96.832153 64.449127,96.835869 
	C75.428642,96.891754 85.941689,96.891754 97.029579,96.891754 
	C97.029579,92.233665 97.029579,88.146126 97.254837,83.974670 
	C97.574448,83.761696 97.767937,83.539299 97.747879,83.518005 
	C97.541954,83.299355 97.301437,83.113297 97.031189,82.945618 
	C96.991814,82.973091 97.080757,82.939110 97.071381,82.609680 
	C97.000046,81.845230 96.938095,81.410225 96.927223,80.510635 
	C96.938141,70.706619 96.897972,61.367180 96.916977,51.768414 
	C96.939095,51.335674 96.902031,51.162258 96.928314,50.524708 
	C96.991661,37.805645 96.991661,25.550722 96.991661,13.218334 
	C94.186676,13.062733 92.040970,12.943704 89.895264,12.824675 
	C88.489296,12.531828 87.063103,11.926291 85.681854,12.015621 
	C83.301506,12.169566 80.949120,12.755891 76.976067,13.436316 
	C78.770912,11.187002 79.598030,10.150448 80.742615,8.939728 
	C87.700775,8.765563 94.341484,8.765563 101.645844,8.765563 
	C101.645844,39.239265 101.645844,69.277779 101.207756,99.781784 
	C100.499130,100.546074 100.228600,100.844879 99.958054,101.143677 
	C78.074860,101.221725 56.191708,101.313560 34.308456,101.371269 
	C25.188011,101.395317 16.067373,101.346718 6.384186,100.992096 
	C5.560068,100.436096 5.298585,100.219162 4.826853,99.992706 
	C4.616602,99.983185 4.196410,99.958282 4.196410,99.958282 
	C4.165650,70.285721 4.134891,40.613167 4.338760,10.367006 
	C4.781679,9.600011 4.927518,9.367451 5.010908,9.095724 
	C25.160093,9.047937 45.309280,9.000152 65.958969,9.035717 
z"/>
<path fill="#D98B4B" opacity="1.000000" stroke="none" 
	d="
M4.748310,9.095341 
	C4.927518,9.367451 4.781679,9.600011 4.396674,9.902512 
	C4.308543,9.706064 4.397127,9.400511 4.748310,9.095341 
z"/>
<path fill="#D98B4B" opacity="1.000000" stroke="none" 
	d="
M4.143496,100.238518 
	C4.196410,99.958282 4.616602,99.983185 4.805017,100.271645 
	C4.979765,100.746162 4.966098,100.932213 4.952433,101.118263 
	C4.665149,100.918427 4.377865,100.718590 4.143496,100.238518 
z"/>
<path fill="#D37418" opacity="1.000000" stroke="none" 
	d="
M5.221645,101.189651 
	C4.966098,100.932213 4.979765,100.746162 5.015267,100.281166 
	C5.298585,100.219162 5.560068,100.436096 5.926494,100.889839 
	C5.851245,101.171432 5.671052,101.216232 5.221645,101.189651 
z"/>
<path fill="#D37418" opacity="1.000000" stroke="none" 
	d="
M100.304153,101.157089 
	C100.228600,100.844879 100.499130,100.546074 101.069092,100.171036 
	C101.129097,100.453362 100.889671,100.811928 100.304153,101.157089 
z"/>
<path fill="#77A3CC" opacity="1.000000" stroke="none" 
	d="
M62.013199,96.779922 
	C44.985603,96.818260 27.958006,96.856613 10.349795,96.666374 
	C9.576110,96.226875 9.345580,96.071541 8.958801,95.990982 
	C8.840009,96.010178 8.633319,96.133469 8.633319,96.133469 
	C8.702866,84.744179 8.772412,73.354897 9.245822,61.606735 
	C12.107450,62.144806 14.565214,63.041752 17.171711,64.201721 
	C17.883911,64.606445 18.447376,64.748146 19.363617,65.054222 
	C22.246695,65.952835 24.776995,66.687073 27.257559,67.748642 
	C25.949389,70.252953 24.690952,72.429909 23.432518,74.606873 
	C23.786253,74.866882 24.139988,75.126892 24.493723,75.386909 
	C26.981722,72.245857 29.469721,69.104805 32.182785,66.275635 
	C33.947544,66.619766 35.487236,66.652008 37.434174,66.772324 
	C44.501095,65.208565 51.160770,63.556732 57.812874,62.319260 
	C57.163933,67.302834 57.009499,72.010536 55.759193,76.406563 
	C54.159851,82.029800 57.545910,85.547882 59.223877,88.966637 
	C58.912434,84.259613 58.216690,78.941414 58.323452,73.639374 
	C58.402451,69.716286 59.526012,65.814232 60.545406,61.865570 
	C64.376610,60.797359 67.846634,59.766380 71.316650,58.735397 
	C76.020294,64.547112 80.653999,70.417877 85.476547,76.129196 
	C86.688637,77.564659 88.506218,78.488869 90.462891,79.776398 
	C90.880249,79.904762 91.064301,80.030281 91.201492,80.329224 
	C92.890198,81.413727 94.441719,82.199280 96.265640,82.985641 
	C96.718941,82.970665 96.899849,82.954887 97.080757,82.939110 
	C97.080757,82.939110 96.991814,82.973091 97.007797,83.230484 
	C97.025711,83.678108 97.027649,83.868355 97.029579,84.058594 
	C97.029579,88.146126 97.029579,92.233665 97.029579,96.891754 
	C85.941689,96.891754 75.428642,96.891754 64.291542,96.651489 
	C63.116051,96.534119 62.564625,96.657021 62.013199,96.779922 
M22.486643,76.547852 
	C22.486643,76.547852 22.447117,76.464363 22.486643,76.547852 
z"/>
<path fill="#C3DDF0" opacity="1.000000" stroke="none" 
	d="
M17.022978,63.938698 
	C14.565214,63.041752 12.107450,62.144806 9.312070,61.144386 
	C8.974455,45.109135 8.974455,29.177359 8.974455,12.437281 
	C25.453991,12.437281 41.562149,12.437281 58.212879,12.579500 
	C58.755455,12.721719 59.048023,13.076066 59.048023,13.076067 
	C52.410740,18.058792 45.835361,23.127825 39.093102,27.964207 
	C37.384571,29.189775 34.847179,29.292488 33.204750,30.571390 
	C28.480928,34.249668 29.765959,40.674290 26.630587,45.890068 
	C24.892914,50.485165 23.472946,54.479904 22.052979,58.474640 
	C22.561262,58.721642 23.069548,58.968647 23.577831,59.215652 
	C24.413172,57.881954 25.237522,56.541214 26.086849,55.216488 
	C26.990692,53.806728 27.918192,52.412132 28.835365,51.010918 
	C29.228144,53.388103 29.620922,55.765293 30.024792,58.981770 
	C30.017395,62.674370 31.198366,65.958298 27.307297,67.421303 
	C24.776995,66.687073 22.246695,65.952835 19.324780,64.777420 
	C18.296436,64.203720 17.659706,64.071213 17.022978,63.938698 
M22.411289,61.397594 
	C22.390306,61.046719 22.369324,60.695847 22.348341,60.344967 
	C22.097029,60.417622 21.845718,60.490273 21.594408,60.562927 
	C21.726377,60.805885 21.858347,61.048843 22.411289,61.397594 
z"/>
<path fill="#C3DCEE" opacity="1.000000" stroke="none" 
	d="
M89.633499,13.041737 
	C92.040970,12.943704 94.186676,13.062733 96.991661,13.218334 
	C96.991661,25.550722 96.991661,37.805645 96.707329,50.620083 
	C96.144485,51.359299 95.934143,51.598866 95.368996,51.885536 
	C89.963364,52.935299 84.980705,53.997833 79.618782,55.056458 
	C78.481621,55.046196 77.723724,55.039845 76.965836,55.033493 
	C75.152496,52.759769 73.339157,50.486046 71.525818,48.212322 
	C71.824928,47.799347 72.124046,47.386375 72.423157,46.973400 
	C74.532990,47.492233 76.635529,48.383236 78.754707,48.424713 
	C80.853188,48.465786 82.968445,47.649994 85.076340,47.210037 
	C84.598099,45.287689 84.716232,42.791290 83.525757,41.554516 
	C80.403282,38.310604 76.397812,35.904877 73.347511,32.607117 
	C71.078926,30.154493 69.753410,26.829567 68.033798,23.936798 
	C75.578430,20.207266 84.667198,21.157492 89.633499,13.041737 
z"/>
<path fill="#77A3CC" opacity="1.000000" stroke="none" 
	d="
M79.998055,55.060364 
	C84.980705,53.997833 89.963364,52.935299 95.635277,51.927250 
	C96.502296,51.997070 96.680046,52.012405 96.857803,52.027740 
	C96.897972,61.367180 96.938141,70.706619 96.706993,80.518845 
	C96.435684,80.991631 95.993378,81.004181 95.708786,80.865189 
	C93.970894,80.494232 92.517601,80.262260 91.064301,80.030289 
	C91.064301,80.030281 90.880249,79.904762 90.785522,79.840576 
	C85.838158,73.368378 80.941315,66.992851 76.182007,60.516258 
	C75.492516,59.577988 75.462341,58.155224 75.768890,56.973618 
	C77.606491,56.347172 78.802277,55.703770 79.998055,55.060364 
z"/>
<path fill="#BDD8EC" opacity="1.000000" stroke="none" 
	d="
M57.820446,61.904892 
	C51.160770,63.556732 44.501095,65.208565 37.426102,66.429047 
	C37.008549,65.065239 37.006313,64.132797 37.004074,63.200352 
	C37.678856,61.761906 38.428856,60.352810 39.005112,58.875927 
	C39.484455,57.647427 39.390949,55.580421 40.187061,55.193634 
	C44.326286,53.182606 45.754467,50.209198 44.713131,45.788944 
	C44.607018,45.338520 45.605961,44.627758 46.092102,44.037804 
	C47.145882,44.935150 48.199661,45.832497 49.465385,46.910324 
	C50.050655,45.362812 50.617500,43.864017 51.618191,41.218090 
	C54.297215,45.721233 56.578320,49.555523 58.948967,54.104797 
	C58.632492,57.181492 58.226471,59.543190 57.820446,61.904892 
z"/>
<path fill="#BDD9EC" opacity="1.000000" stroke="none" 
	d="
M71.411308,58.468868 
	C67.846634,59.766380 64.376610,60.797359 60.509636,61.468643 
	C60.352962,59.061382 60.593239,57.013817 60.833515,54.966251 
	C59.677567,51.822720 58.578568,48.656570 57.342739,45.544765 
	C56.679497,43.874733 55.781082,42.298100 54.996384,40.694843 
	C59.003143,38.166389 66.578758,41.707623 67.153648,46.952602 
	C67.486885,49.992935 68.564758,51.614716 70.737221,53.172489 
	C71.142204,53.462883 71.090431,54.390274 71.218262,55.625595 
	C71.181389,56.583138 71.319862,56.868893 71.602493,57.084774 
	C71.570312,57.457294 71.538139,57.829815 71.411308,58.468868 
z"/>
<path fill="#106386" opacity="1.000000" stroke="none" 
	d="
M60.618080,54.862888 
	C60.593239,57.013817 60.352962,59.061382 60.148453,61.505875 
	C59.526012,65.814232 58.402451,69.716286 58.323452,73.639374 
	C58.216690,78.941414 58.912434,84.259613 59.223877,88.966637 
	C57.545910,85.547882 54.159851,82.029800 55.759193,76.406563 
	C57.009499,72.010536 57.163933,67.302834 57.812874,62.319256 
	C58.226471,59.543190 58.632492,57.181492 59.108360,54.419624 
	C59.586353,54.266148 59.994499,54.512836 60.618080,54.862888 
z"/>
<path fill="#B8D5E9" opacity="1.000000" stroke="none" 
	d="
M36.672718,62.988289 
	C37.006313,64.132797 37.008549,65.065239 37.018852,66.340973 
	C35.487236,66.652008 33.947544,66.619766 32.282402,65.846741 
	C32.045769,63.057400 31.934589,61.008846 31.823408,58.960297 
	C31.730150,56.716797 31.636892,54.473297 31.684574,51.764938 
	C32.189388,51.251659 32.553268,51.203236 32.917145,51.154808 
	C38.834141,53.621502 36.327023,58.570335 36.672718,62.988289 
z"/>
<path fill="#BBD7EB" opacity="1.000000" stroke="none" 
	d="
M28.900406,50.676460 
	C27.918192,52.412132 26.990692,53.806728 26.086849,55.216488 
	C25.237522,56.541214 24.413172,57.881954 23.577831,59.215652 
	C23.069548,58.968647 22.561262,58.721642 22.052979,58.474640 
	C23.472946,54.479904 24.892914,50.485165 26.563877,46.283436 
	C27.123148,46.258968 27.431425,46.441494 27.763496,47.110016 
	C28.136976,48.061188 28.486662,48.526363 28.836348,48.991539 
	C28.879381,49.441692 28.922413,49.891850 28.900406,50.676460 
z"/>
<path fill="#287192" opacity="1.000000" stroke="none" 
	d="
M31.542879,58.971489 
	C31.934589,61.008846 32.045769,63.057400 32.057335,65.534851 
	C29.469721,69.104805 26.981722,72.245857 24.493723,75.386909 
	C24.139988,75.126892 23.786253,74.866882 23.432518,74.606873 
	C24.690952,72.429909 25.949389,70.252953 27.257561,67.748642 
	C31.198366,65.958298 30.017395,62.674370 30.087807,59.396492 
	C30.513941,58.975510 30.888145,58.979092 31.542879,58.971489 
z"/>
<path fill="#B8D5E9" opacity="1.000000" stroke="none" 
	d="
M31.738029,44.022579 
	C31.955273,41.555340 32.172516,39.088104 32.389759,36.620865 
	C33.128510,36.630447 33.867256,36.640030 34.606007,36.649609 
	C34.606007,39.348328 34.606007,42.047047 33.988903,44.892578 
	C32.827209,44.700451 32.282619,44.361515 31.738029,44.022579 
z"/>
<path fill="#287192" opacity="1.000000" stroke="none" 
	d="
M31.509079,44.353996 
	C32.282619,44.361515 32.827209,44.700451 33.700977,45.085045 
	C33.687431,46.879982 33.344707,48.629265 32.959564,50.766678 
	C32.553268,51.203236 32.189388,51.251659 31.571106,51.421562 
	C31.304506,49.257164 31.292316,46.971287 31.509079,44.353996 
z"/>
<path fill="#78A3CB" opacity="1.000000" stroke="none" 
	d="
M79.618782,55.056458 
	C78.802277,55.703770 77.606491,56.347172 76.072067,56.943008 
	C76.106224,56.461655 76.479019,56.027870 76.908829,55.313793 
	C77.723724,55.039845 78.481621,55.046196 79.618782,55.056458 
z"/>
<path fill="#C3DDF0" opacity="1.000000" stroke="none" 
	d="
M28.890499,48.679451 
	C28.486662,48.526363 28.136976,48.061188 27.864145,47.366344 
	C28.275551,47.546906 28.610100,47.957138 28.890499,48.679451 
z"/>
<path fill="#77A3CC" opacity="1.000000" stroke="none" 
	d="
M71.687592,56.851913 
	C71.319862,56.868893 71.181389,56.583138 71.265251,55.993584 
	C71.633682,55.972633 71.776772,56.259098 71.687592,56.851913 
z"/>
<path fill="#CE8953" opacity="1.000000" stroke="none" 
	d="
M59.326721,13.016487 
	C59.048023,13.076066 58.755455,12.721719 58.643806,12.521217 
	C58.851879,12.263101 59.171604,12.205487 59.977600,12.193241 
	C60.177723,12.478044 59.891575,12.717477 59.326721,13.016487 
z"/>
<path fill="#899DB5" opacity="1.000000" stroke="none" 
	d="
M95.993378,81.004181 
	C95.993378,81.004181 96.435684,80.991631 96.655914,80.983421 
	C96.938095,81.410225 97.000046,81.845230 97.071381,82.609680 
	C96.899849,82.954887 96.718941,82.970665 96.269287,82.655762 
	C95.998154,81.884781 95.995766,81.444481 95.993378,81.004181 
z"/>
<path fill="#899DB5" opacity="1.000000" stroke="none" 
	d="
M62.338356,96.858215 
	C62.564625,96.657021 63.116051,96.534119 63.825066,96.595596 
	C63.542942,96.832153 63.103226,96.884331 62.338356,96.858215 
z"/>
<path fill="#899DB5" opacity="1.000000" stroke="none" 
	d="
M96.916977,51.768414 
	C96.680046,52.012405 96.502296,51.997070 96.058258,51.940018 
	C95.934143,51.598866 96.144485,51.359299 96.643982,51.084221 
	C96.902031,51.162258 96.939095,51.335674 96.916977,51.768414 
z"/>
<path fill="#899DB5" opacity="1.000000" stroke="none" 
	d="
M97.254837,83.974670 
	C97.027649,83.868355 97.025711,83.678108 97.047173,83.203003 
	C97.301437,83.113297 97.541954,83.299355 97.747879,83.518005 
	C97.767937,83.539299 97.574448,83.761696 97.254837,83.974670 
z"/>
<path fill="#CE8953" opacity="1.000000" stroke="none" 
	d="
M9.061455,96.948357 
	C8.841118,96.756416 8.620781,96.564476 8.516882,96.252998 
	C8.633319,96.133469 8.840009,96.010178 8.922795,96.234642 
	C9.005582,96.459106 9.061456,96.948357 9.061455,96.948357 
z"/>
<path fill="#899DB5" opacity="1.000000" stroke="none" 
	d="
M9.302212,96.946220 
	C9.061456,96.948357 9.005582,96.459106 9.041588,96.215439 
	C9.345580,96.071541 9.576110,96.226875 9.884024,96.613434 
	C9.998865,96.789078 9.542968,96.944084 9.302212,96.946220 
z"/>
<path fill="#78A3CB" opacity="1.000000" stroke="none" 
	d="
M95.708786,80.865189 
	C95.995766,81.444481 95.998154,81.884781 95.996887,82.654953 
	C94.441719,82.199280 92.890198,81.413727 91.201492,80.329224 
	C92.517601,80.262260 93.970894,80.494232 95.708786,80.865189 
z"/>
<path fill="#BBD7EB" opacity="1.000000" stroke="none" 
	d="
M17.171711,64.201721 
	C17.659706,64.071213 18.296436,64.203720 18.972004,64.613037 
	C18.447376,64.748146 17.883911,64.606445 17.171711,64.201721 
z"/>
<path fill="#287192" opacity="1.000000" stroke="none" 
	d="
M22.466881,76.506104 
	C22.447117,76.464363 22.486643,76.547852 22.466881,76.506104 
z"/>
<path fill="#BBD7EB" opacity="1.000000" stroke="none" 
	d="
M22.200802,61.344696 
	C21.858347,61.048843 21.726377,60.805885 21.594408,60.562927 
	C21.845718,60.490273 22.097029,60.417622 22.348341,60.344971 
	C22.369324,60.695847 22.390306,61.046719 22.200802,61.344696 
z"/>
</svg>