<?xml version="1.0" standalone="no"?>
<!DOCTYPE svg PUBLIC "-//W3C//DTD SVG 20010904//EN"
 "http://www.w3.org/TR/2001/REC-SVG-20010904/DTD/svg10.dtd">
<svg version="1.0" xmlns="http://www.w3.org/2000/svg"
 width="2134.000000pt" height="2134.000000pt" viewBox="0 0 2134.000000 2134.000000"
 preserveAspectRatio="xMidYMid meet">

<g transform="translate(0.000000,2134.000000) scale(0.100000,-0.100000)"
fill="#ffffff" stroke="none">
<path d="M9111 21329 c-473 -50 -911 -261 -1232 -596 -240 -251 -396 -532
-484 -877 -54 -211 -65 -345 -65 -793 l0 -393 -2665 0 -2665 0 0 -665 0 -665
685 0 c540 0 686 -3 690 -12 2 -7 263 -3478 580 -7713 317 -4235 583 -7736
591 -7780 132 -706 584 -1305 1219 -1615 215 -105 388 -160 625 -197 110 -17
311 -18 4275 -18 3964 0 4165 1 4275 18 237 37 410 92 625 197 635 310 1087
909 1219 1615 8 44 274 3545 591 7780 317 4235 578 7706 580 7713 4 9 150 12
690 12 l685 0 0 665 0 665 -2665 0 -2665 0 0 393 c0 448 -11 582 -65 793 -88
345 -244 626 -484 877 -327 340 -760 547 -1250 597 -127 12 -2966 12 -3090 -1z
m3054 -1344 c108 -23 225 -84 301 -157 78 -74 123 -145 161 -253 l28 -80 3
-412 3 -413 -1996 0 -1996 0 3 413 3 412 28 80 c59 166 162 285 309 355 150
72 56 68 1648 69 1231 1 1445 -1 1505 -14z m4439 -2692 c-3 -27 -261 -3467
-574 -7646 -397 -5297 -574 -7616 -586 -7660 -19 -74 -79 -207 -125 -274 -119
-175 -286 -298 -479 -350 -62 -17 -268 -18 -4180 -18 l-4115 0 -78 23 c-156
45 -301 134 -408 250 -78 85 -122 157 -156 254 -25 71 -42 289 -599 7718 -315
4205 -575 7669 -578 7698 l-5 52 5944 0 5944 0 -5 -47z"/>
<path d="M7330 9335 l0 -5335 668 2 667 3 3 5333 2 5332 -670 0 -670 0 0
-5335z"/>
<path d="M10000 9335 l0 -5335 665 0 665 0 0 5335 0 5335 -665 0 -665 0 0
-5335z"/>
<path d="M12662 9338 l3 -5333 668 -3 667 -2 0 5335 0 5335 -670 0 -670 0 2
-5332z"/>
</g>
</svg>
